# xmcd CD database file
# Copyright (C) 1995-1998 Ti Kan
#
# Track frame offsets:
#	150
#	20087
#	35837
#	56462
#	73525
#	89462
#	107912
#	129437
#	145187
#	160712
#	178187
#	197087
#
# Disc length: 3135 seconds
#
# Revision: 1
# Processed by: cddbd v1.4PL0 Copyright (c) Steve Scherf et al.
# Submitted via: CDex 1.30Release
#
DISCID=ab0c3d0c
DTITLE=Yvonne Moore - Walkin' The Blues
DYEAR=1994
DGENRE=Blues
TTITLE0=Undercover Girl
TTITLE1=You Got A Hold On My Heart
TTITLE2=Blue Morning "For Daddy"
TTITLE3=Labor Of Love
TTITLE4=Today I Sing The Blues
TTITLE5=Bad Rumour
TTITLE6=Let Me Stay
TTITLE7=Shake It
TTITLE8=Natural Woman
TTITLE9=Running Behind My Own Live
TTITLE10=Sneakin' Through The Country
TTITLE11=Dr. Feelgood
EXTD=YEAR: 1994 ID3G:   0
EXTT0=
EXTT1=
EXTT2=
EXTT3=
EXTT4=
EXTT5=
EXTT6=
EXTT7=
EXTT8=
EXTT9=
EXTT10=
EXTT11=
PLAYORDER=
